<?xml version="1.0" standalone="no"?>
<!DOCTYPE svg PUBLIC "-//W3C//DTD SVG 20010904//EN"
 "http://www.w3.org/TR/2001/REC-SVG-20010904/DTD/svg10.dtd">
<svg version="1.0" xmlns="http://www.w3.org/2000/svg"
 width="15.000000pt" height="20.000000pt" viewBox="0 0 15.000000 20.000000"
 preserveAspectRatio="xMidYMid meet">

<g transform="translate(0.000000,20.000000) scale(0.100000,-0.100000)"
fill="#000000" stroke="none">
<path d="M11 186 c-15 -18 -4 -63 17 -71 16 -6 16 -7 0 -16 -26 -14 -23 -64 4
-83 46 -33 108 -7 108 44 0 16 -4 32 -10 35 -15 9 -12 25 6 25 12 0 14 9 12
38 l-3 37 -61 3 c-44 2 -64 -1 -73 -12z m127 -26 c0 -23 -4 -30 -19 -30 -10 0
-18 -5 -17 -12 2 -6 -9 -12 -24 -13 -22 -2 -29 4 -38 28 -18 53 -15 57 43 57
53 0 54 -1 55 -30z m-15 -69 c4 -1 7 -15 7 -31 0 -62 -101 -67 -108 -6 -2 16
1 32 7 36 9 5 60 6 94 1z"/>
</g>
</svg>
